<svg fill="#fff" xmlns="http://www.w3.org/2000/svg" viewBox="0 0 830 163"><path class="st0" d="M187.6 64.4l.2-17.3L162 62V43.6l-65.2-38-65.2 38v43.9L9 98.9V117l22.6-12v14.6l65.2 38 65.2-38v-40l25.6-15.2zM36.7 47.3l60.1-35.5 55 31.7v21.8l-41.3 25.1-21.7-16.6 27.4-15.3-12.9-9.5-66.6 36.4V47.3zm120.2 58.2l-60.1 34.3-49.9-29.1V96.6l28.4-15.4L97 97.8l-17.4 9.6 13.9 10.5 63.4-35v22.6zm81.6-46.7v27.1h35.8V58.8h6.8v59.9h-6.8V92.2h-35.8v26.5h-6.8V58.8h6.8zm126.2 0v6.3h-33.5v20.1h29.9v6.2h-29.9v20.9h34.6v6.3h-41.3V58.8h40.2zm79.1 59.9l-12.5-19.2c-1.2.1-2.5.2-3.8.2h-15.8v19H405V58.8h22.5c14.8 0 23.4 7.4 23.4 20.1 0 9.8-4.8 16.6-13.4 19.3l14 20.5h-7.7zm-16.2-25.3c10.8 0 16.9-4.9 16.9-14.3 0-9.2-6.1-14-16.9-14h-15.8v28.2h15.8zm120.6-4.6c0 16.9-13.7 30.2-31 30.2-17.4 0-31.1-13.4-31.1-30.2 0-16.9 13.7-30.1 31.1-30.1 17.3-.1 31 13.2 31 30.1zm-55.2 0c0 13.3 11 24 24.2 24s24.1-10.7 24.1-24S530.5 65 517.2 65C504 65 493 75.5 493 88.8zm88.7-29.9l18 55.5 18-55.5h3.7l18 55.5 17.9-55.5h3.8l-20 59.8h-3.6l-18-54.8-18 54.8h-3.7l-20-59.8h3.9zm152.2 42.8h-34.7l-7.6 17h-3.9l26.9-59.8h3.8l27.1 59.8h-3.9l-7.7-17zm-1.6-3.6L716.4 63l-15.7 35.1h31.6zm67.1-1.3v21.9H796V97l-23.7-38.1h3.8l21.6 33.6L819 58.9h3.8l-23.4 37.9z"/></svg>